<svg width="22" height="22" viewBox="0 0 22 22" fill="none" xmlns="http://www.w3.org/2000/svg">
<path d="M20.8299 20.0081L15.4164 14.5947C16.6693 13.1521 17.4303 11.2717 17.4303 9.2153C17.4303 4.68581 13.7451 1 9.21494 1C4.68501 1.00016 1 4.68569 1 9.2153C1 13.7448 4.68489 17.4302 9.21494 17.4302C11.2708 17.4302 13.1514 16.6693 14.5935 15.4163L20.0074 20.8298C20.121 20.9434 20.2698 21 20.4188 21C20.5674 21 20.7164 20.9432 20.8296 20.8298C21.0568 20.6028 21.0568 20.2344 20.8295 20.0074L20.8299 20.0081ZM2.16353 9.21571C2.16353 5.32723 5.32705 2.16353 9.21536 2.16353C13.1039 2.16353 16.2676 5.32719 16.2676 9.21571C16.2676 13.1042 13.1041 16.2675 9.21536 16.2675C5.32701 16.2675 2.16353 13.1042 2.16353 9.21571Z" fill="#222222" stroke="#262626" stroke-miterlimit="4.13357"/>
</svg>
